<?xml version="1.0" standalone="no"?>
<!DOCTYPE svg PUBLIC "-//W3C//DTD SVG 20010904//EN"
 "http://www.w3.org/TR/2001/REC-SVG-20010904/DTD/svg10.dtd">
<svg version="1.0" xmlns="http://www.w3.org/2000/svg"
 width="140.000000pt" height="175.000000pt" viewBox="0 0 140.000000 175.000000"
 preserveAspectRatio="xMidYMid meet">

<g transform="translate(0.000000,175.000000) scale(0.100000,-0.100000)"
fill="#000000" stroke="none">
<path d="M21 1183 l0 -568 162 -140 c88 -77 241 -211 339 -298 l178 -158 39
33 c21 18 176 154 344 302 l307 268 0 564 0 564 -685 0 -685 0 1 -567z m703
254 l157 -144 2 -136 2 -136 -25 23 c-14 13 -103 96 -198 184 l-173 162 -69 0
-70 0 0 -302 0 -303 206 -185 c112 -102 219 -198 235 -213 l31 -29 -23 -25
c-13 -14 -41 -38 -61 -55 l-38 -30 -54 49 c-30 26 -147 129 -260 228 l-205
180 -1 438 0 437 193 0 194 0 157 -143z m496 -295 l0 -439 -132 -115 -133
-116 -36 32 c-19 17 -117 105 -217 195 l-182 165 0 129 0 129 108 -99 c59 -55
156 -146 216 -201 l109 -101 49 25 48 24 0 304 0 303 -102 93 c-57 52 -104 97
-106 102 -2 4 82 8 187 8 l191 0 0 -438z"/>
</g>
</svg>
