<svg version="1.2" xmlns="http://www.w3.org/2000/svg" viewBox="0 0 107 126" width="107" height="126">
	<style>
		.s0 { opacity: .99;fill: #4ca974 } 
		.s1 { fill: #213345 } 
	</style>
	<path id="Path 0" fill-rule="evenodd" class="s0" d="m53.11-0.09l3.2 0.5c1.75 0.27 6.57 0.79 10.69 1.14 4.13 0.35 10.65 1.45 14.5 2.44 3.85 1 11.2 3.77 25.67 10.51l-0.67 35-6.71 14 2.8 5c2.11 3.77 2.81 6.35 2.82 10.5 0.01 3.81-0.76 7.19-2.52 11-1.4 3.03-5.03 8.2-8.08 11.5-3.04 3.3-7.95 7.87-10.92 10.15-2.96 2.29-10 6.45-15.64 9.25-5.64 2.81-10.7 5.1-11.25 5.1-0.64 0-1.01-8.44-1.06-46.5l3.18-7c2.78-6.11 3.01-7.25 1.85-9-0.74-1.1-2.02-3.35-2.86-5-0.84-1.65-1.7-5.92-1.91-9.5-0.31-5.15 0.1-7.68 1.96-12.18 2.1-5.1 2.69-5.73 5.84-6.24 1.92-0.3 5.19-0.56 7.25-0.57 2.78-0.01 3.83-0.46 4.07-1.76 0.18-0.96 0.18-3.66-0.32-10.25h-22zm21.03 34.97c-1.3 0.89-3.2 2.97-4.22 4.62-1.02 1.65-1.87 4.69-1.89 6.75-0.02 2.06 0.47 4.99 1.07 6.5 0.61 1.51 4.88 6.8 9.5 11.75 4.62 4.95 8.4 9.45 8.42 10 0.01 0.55-1.45 2.46-3.25 4.23-1.8 1.78-3.61 3.25-4.02 3.25-0.41 0.01-2.44-1.57-4.5-3.51-3.06-2.88-3.99-3.29-5.05-2.25-0.72 0.7-1.56 3.31-1.88 5.78-0.4 3.13-0.07 5.49 1.05 7.75 0.9 1.79 3.09 3.98 4.88 4.87 1.79 0.9 4.6 1.63 6.25 1.63 1.65 0 4.46-0.73 6.25-1.63 1.79-0.89 4.04-2.84 5-4.32 1.1-1.71 1.73-4.57 1.7-7.75-0.03-3.1-0.77-6.21-1.91-8.05-1.02-1.65-5.5-6.72-9.95-11.26l-8.09-8.27c5.71-6.18 7.96-7.98 8.68-7.99 0.73-0.01 2.67 1.35 4.32 3.02 1.65 1.67 3.56 3.03 4.25 3.02 0.69-0.01 1.7-1.14 2.25-2.52 0.55-1.37 1-4.07 1-6 0-2.55-0.88-4.46-3.25-7.06-1.79-1.96-4.15-3.8-5.25-4.08-1.1-0.29-2.68-0.65-3.5-0.81-0.83-0.16-2.4-0.07-3.5 0.21-1.1 0.27-3.06 1.23-4.36 2.12z"/>
	<path id="Path 0" class="s1" d="m33.5 2.44c-3.85 0.69-10.6 2.46-15 3.93-4.4 1.47-10.25 3.91-13 5.42l-5 2.73 0.2 68.98c3.89 8.53 7 13.44 9.41 16.43 2.42 2.98 7.31 7.62 10.89 10.3 3.58 2.68 10.89 7.1 16.25 9.82 5.36 2.72 10.09 4.69 10.5 4.37 0.41-0.32 0.88-20.46 1.05-44.75 0.16-24.29 0.05-45.18-0.25-46.42-0.52-2.11-1.06-2.25-9.05-2.25h-8.5v-13h22v-17c-9.69 0.14-15.65 0.75-19.5 1.44z"/>
</svg>